<?xml version="1.0" encoding="utf-8"?>
<svg version="1.1" id="Layer_1"
xmlns="http://www.w3.org/2000/svg"
xmlns:xlink="http://www.w3.org/1999/xlink"
width="648px" height="201px"
xml:space="preserve">
<g id="PathID_19" transform="matrix(2.75182, 0, 0, 2.75182, 21.7, 149.1)" opacity="1">
<path style="fill:#535353;fill-opacity:1" d="M4.8 0L4.8 -36.65L9.65 -36.65L9.65 0L4.8 0" />
</g>
<g id="PathID_20" transform="matrix(2.75182, 0, 0, 2.75182, 21.7, 149.1)" opacity="1">
</g>
<g id="PathID_21" transform="matrix(2.75182, 0, 0, 2.75182, 54.9, 149.1)" opacity="1">
<path style="fill:#535353;fill-opacity:1" d="M3.4 0L3.4 -26.55L7.45 -26.55L7.45 -22.75Q10.35 -27.15 15.85 -27.15Q18.25 -27.15 20.25 -26.25Q22.3 -25.4 23.3 -24Q24.3 -22.6 24.7 -20.7Q24.95 -19.45 24.95 -16.3L24.95 0L20.45 0L20.45 -16.15Q20.45 -18.9 19.9 -20.25Q19.4 -21.6 18.05 -22.4Q16.7 -23.25 14.9 -23.25Q12.05 -23.25 9.95 -21.4Q7.9 -19.6 7.9 -14.5L7.9 0L3.4 0" />
</g>
<g id="PathID_22" transform="matrix(2.75182, 0, 0, 2.75182, 54.9, 149.1)" opacity="1">
</g>
<g id="PathID_23" transform="matrix(2.75182, 0, 0, 2.75182, 127.4, 149.1)" opacity="1">
<path style="fill:#535353;fill-opacity:1" d="M4.45 0L4.45 -23.05L0.45 -23.05L0.45 -26.55L4.45 -26.55L4.45 -29.35Q4.45 -32 4.9 -33.3Q5.55 -35.05 7.2 -36.15Q8.85 -37.25 11.8 -37.25Q13.7 -37.25 16 -36.75L15.35 -32.85Q13.95 -33.1 12.7 -33.1Q10.65 -33.1 9.8 -32.2Q8.95 -31.35 8.95 -28.95L8.95 -26.55L14.1 -26.55L14.1 -23.05L8.95 -23.05L8.95 0L4.45 0" />
</g>
<g id="PathID_24" transform="matrix(2.75182, 0, 0, 2.75182, 127.4, 149.1)" opacity="1">
</g>
<g id="PathID_25" transform="matrix(2.75182, 0, 0, 2.75182, 160.55, 149.1)" opacity="1">
<path style="fill:#535353;fill-opacity:1" d="M1.7 -13.25Q1.7 -20.65 5.8 -24.2Q9.2 -27.15 14.15 -27.15Q19.6 -27.15 23.1 -23.55Q26.6 -19.95 26.6 -13.65Q26.6 -8.5 25.05 -5.55Q23.5 -2.65 20.55 -1Q17.6 0.6 14.15 0.6Q8.55 0.6 5.1 -2.95Q1.7 -6.55 1.7 -13.25M6.35 -13.25Q6.35 -8.15 8.55 -5.6Q10.75 -3.1 14.15 -3.1Q17.5 -3.1 19.7 -5.6Q21.95 -8.15 21.95 -13.4Q21.95 -18.3 19.7 -20.85Q17.45 -23.4 14.15 -23.4Q10.75 -23.4 8.55 -20.85Q6.35 -18.35 6.35 -13.25" />
</g>
<g id="PathID_26" transform="matrix(2.75182, 0, 0, 2.75182, 160.55, 149.1)" opacity="1">
</g>
<g id="PathID_27" transform="matrix(2.75182, 0, 0, 2.75182, 233.05, 149.1)" opacity="1">
<path style="fill:#535353;fill-opacity:1" d="M3.4 0L3.4 -26.55L7.45 -26.55L7.45 -22.75Q10.35 -27.15 15.85 -27.15Q18.25 -27.15 20.25 -26.25Q22.3 -25.4 23.3 -24Q24.3 -22.6 24.7 -20.7Q24.95 -19.45 24.95 -16.3L24.95 0L20.45 0L20.45 -16.15Q20.45 -18.9 19.9 -20.25Q19.4 -21.6 18.05 -22.4Q16.7 -23.25 14.9 -23.25Q12.05 -23.25 9.95 -21.4Q7.9 -19.6 7.9 -14.5L7.9 0L3.4 0" />
</g>
<g id="PathID_28" transform="matrix(2.75182, 0, 0, 2.75182, 233.05, 149.1)" opacity="1">
</g>
<g id="PathID_29" transform="matrix(2.75182, 0, 0, 2.75182, 305.55, 149.1)" opacity="1">
<path style="fill:#535353;fill-opacity:1" d="M21.55 -8.6L26.2 -8Q25.1 -3.9 22.1 -1.65Q19.15 0.6 14.5 0.6Q8.7 0.6 5.3 -2.95Q1.9 -6.55 1.9 -13.05Q1.9 -19.75 5.3 -23.45Q8.75 -27.15 14.25 -27.15Q19.6 -27.15 22.95 -23.5Q26.35 -19.9 26.35 -13.3L26.3 -12.15L6.55 -12.15Q6.75 -7.75 8.95 -5.4Q11.2 -3.1 14.55 -3.1Q17 -3.1 18.75 -4.4Q20.5 -5.7 21.55 -8.6M6.8 -15.85L21.6 -15.85Q21.3 -19.15 19.9 -20.85Q17.75 -23.45 14.3 -23.45Q11.2 -23.45 9.1 -21.35Q7 -19.3 6.8 -15.85" />
</g>
<g id="PathID_30" transform="matrix(2.75182, 0, 0, 2.75182, 305.55, 149.1)" opacity="1">
</g>
<g id="PathID_31" transform="matrix(2.75182, 0, 0, 2.75182, 378.05, 149.1)" opacity="1">
<path style="fill:#535353;fill-opacity:1" d="M13.2 -4L13.8 -0.05Q11.9 0.35 10.4 0.35Q7.95 0.35 6.6 -0.4Q5.25 -1.2 4.7 -2.45Q4.15 -3.7 4.15 -7.75L4.15 -23.05L0.8 -23.05L0.8 -26.55L4.15 -26.55L4.15 -33.1L8.65 -35.8L8.65 -26.55L13.2 -26.55L13.2 -23.05L8.65 -23.05L8.65 -7.5Q8.65 -5.6 8.85 -5.05Q9.1 -4.5 9.65 -4.15Q10.2 -3.85 11.2 -3.85Q11.95 -3.85 13.2 -4" />
</g>
<g id="PathID_32" transform="matrix(2.75182, 0, 0, 2.75182, 378.05, 149.1)" opacity="1">
</g>
<g id="PathID_33" transform="matrix(2.61526, 0, 0, 2.61526, 418.9, 147.55)" opacity="1">
<path style="fill:#1E90FF;fill-opacity:1" d="M3.65 0L3.65 -36.65L14.7 -36.65L21.35 -11.65L27.95 -36.65L39.05 -36.65L39.05 0L32.2 0L32.15 -28.85L24.9 0L17.75 0L10.5 -28.85L10.5 0L3.65 0" />
</g>
<g id="PathID_34" transform="matrix(2.61526, 0, 0, 2.61526, 418.9, 147.55)" opacity="1">
</g>
<g id="PathID_35" transform="matrix(2.61526, 0, 0, 2.61526, 524.6, 147.55)" opacity="1">
<path style="fill:#1E90FF;fill-opacity:1" d="M3.7 -36.65L11.1 -36.65L11.1 -16.8Q11.1 -12.05 11.35 -10.65Q11.8 -8.4 13.6 -7.05Q15.4 -5.7 18.5 -5.7Q21.65 -5.7 23.25 -6.95Q24.85 -8.25 25.15 -10.1Q25.5 -12 25.5 -16.35L25.5 -36.65L32.9 -36.65L32.9 -17.35Q32.9 -10.75 32.3 -8Q31.7 -5.3 30.05 -3.4Q28.45 -1.55 25.75 -0.45Q23.05 0.65 18.7 0.65Q13.45 0.65 10.75 -0.55Q8.05 -1.75 6.45 -3.7Q4.9 -5.65 4.4 -7.75Q3.7 -10.9 3.7 -17.05L3.7 -36.65" />
</g>
<g id="PathID_36" transform="matrix(2.61526, 0, 0, 2.61526, 524.6, 147.55)" opacity="1">
</g>
</svg>
